<svg width="295" height="171" viewBox="0 0 295 171" fill="none" xmlns="http://www.w3.org/2000/svg">
<rect width="295" height="171" rx="20" fill="#D9D9D9"/>
<path d="M71.2955 40.3636V52H69.8864V41.8409H69.8182L66.9773 43.7273V42.2955L69.8864 40.3636H71.2955ZM78.733 40.3636V52H77.3239V41.8409H77.2557L74.4148 43.7273V42.2955L77.3239 40.3636H78.733ZM86.1705 40.3636V52H84.7614V41.8409H84.6932L81.8523 43.7273V42.2955L84.7614 40.3636H86.1705ZM93.608 40.3636V52H92.1989V41.8409H92.1307L89.2898 43.7273V42.2955L92.1989 40.3636H93.608ZM101.455 52V50.9773L105.295 46.7727C105.746 46.2803 106.117 45.8523 106.409 45.4886C106.701 45.1212 106.917 44.7765 107.057 44.4545C107.201 44.1288 107.273 43.7879 107.273 43.4318C107.273 43.0227 107.174 42.6686 106.977 42.3693C106.784 42.0701 106.519 41.839 106.182 41.6761C105.845 41.5133 105.466 41.4318 105.045 41.4318C104.598 41.4318 104.208 41.5246 103.875 41.7102C103.545 41.892 103.29 42.1477 103.108 42.4773C102.93 42.8068 102.841 43.1932 102.841 43.6364H101.5C101.5 42.9545 101.657 42.3561 101.972 41.8409C102.286 41.3258 102.714 40.9242 103.256 40.6364C103.801 40.3485 104.413 40.2045 105.091 40.2045C105.773 40.2045 106.377 40.3485 106.903 40.6364C107.43 40.9242 107.843 41.3125 108.142 41.8011C108.441 42.2898 108.591 42.8333 108.591 43.4318C108.591 43.8598 108.513 44.2784 108.358 44.6875C108.206 45.0928 107.941 45.5455 107.562 46.0455C107.188 46.5417 106.667 47.1477 106 47.8636L103.386 50.6591V50.75H108.795V52H101.455ZM111.142 52V50.9773L114.983 46.7727C115.434 46.2803 115.805 45.8523 116.097 45.4886C116.388 45.1212 116.604 44.7765 116.744 44.4545C116.888 44.1288 116.96 43.7879 116.96 43.4318C116.96 43.0227 116.862 42.6686 116.665 42.3693C116.472 42.0701 116.206 41.839 115.869 41.6761C115.532 41.5133 115.153 41.4318 114.733 41.4318C114.286 41.4318 113.896 41.5246 113.562 41.7102C113.233 41.892 112.977 42.1477 112.795 42.4773C112.617 42.8068 112.528 43.1932 112.528 43.6364H111.188C111.188 42.9545 111.345 42.3561 111.659 41.8409C111.973 41.3258 112.402 40.9242 112.943 40.6364C113.489 40.3485 114.1 40.2045 114.778 40.2045C115.46 40.2045 116.064 40.3485 116.591 40.6364C117.117 40.9242 117.53 41.3125 117.83 41.8011C118.129 42.2898 118.278 42.8333 118.278 43.4318C118.278 43.8598 118.201 44.2784 118.045 44.6875C117.894 45.0928 117.629 45.5455 117.25 46.0455C116.875 46.5417 116.354 47.1477 115.688 47.8636L113.074 50.6591V50.75H118.483V52H111.142ZM120.83 52V50.9773L124.67 46.7727C125.121 46.2803 125.492 45.8523 125.784 45.4886C126.076 45.1212 126.292 44.7765 126.432 44.4545C126.576 44.1288 126.648 43.7879 126.648 43.4318C126.648 43.0227 126.549 42.6686 126.352 42.3693C126.159 42.0701 125.894 41.839 125.557 41.6761C125.22 41.5133 124.841 41.4318 124.42 41.4318C123.973 41.4318 123.583 41.5246 123.25 41.7102C122.92 41.892 122.665 42.1477 122.483 42.4773C122.305 42.8068 122.216 43.1932 122.216 43.6364H120.875C120.875 42.9545 121.032 42.3561 121.347 41.8409C121.661 41.3258 122.089 40.9242 122.631 40.6364C123.176 40.3485 123.788 40.2045 124.466 40.2045C125.148 40.2045 125.752 40.3485 126.278 40.6364C126.805 40.9242 127.218 41.3125 127.517 41.8011C127.816 42.2898 127.966 42.8333 127.966 43.4318C127.966 43.8598 127.888 44.2784 127.733 44.6875C127.581 45.0928 127.316 45.5455 126.938 46.0455C126.562 46.5417 126.042 47.1477 125.375 47.8636L122.761 50.6591V50.75H128.17V52H120.83ZM130.517 52V50.9773L134.358 46.7727C134.809 46.2803 135.18 45.8523 135.472 45.4886C135.763 45.1212 135.979 44.7765 136.119 44.4545C136.263 44.1288 136.335 43.7879 136.335 43.4318C136.335 43.0227 136.237 42.6686 136.04 42.3693C135.847 42.0701 135.581 41.839 135.244 41.6761C134.907 41.5133 134.528 41.4318 134.108 41.4318C133.661 41.4318 133.271 41.5246 132.938 41.7102C132.608 41.892 132.352 42.1477 132.17 42.4773C131.992 42.8068 131.903 43.1932 131.903 43.6364H130.562C130.562 42.9545 130.72 42.3561 131.034 41.8409C131.348 41.3258 131.777 40.9242 132.318 40.6364C132.864 40.3485 133.475 40.2045 134.153 40.2045C134.835 40.2045 135.439 40.3485 135.966 40.6364C136.492 40.9242 136.905 41.3125 137.205 41.8011C137.504 42.2898 137.653 42.8333 137.653 43.4318C137.653 43.8598 137.576 44.2784 137.42 44.6875C137.269 45.0928 137.004 45.5455 136.625 46.0455C136.25 46.5417 135.729 47.1477 135.062 47.8636L132.449 50.6591V50.75H137.858V52H130.517ZM148.636 52.1591C147.886 52.1591 147.218 52.0303 146.631 51.7727C146.047 51.5152 145.583 51.1572 145.239 50.6989C144.898 50.2367 144.712 49.7008 144.682 49.0909H146.114C146.144 49.4659 146.273 49.7898 146.5 50.0625C146.727 50.3314 147.025 50.5398 147.392 50.6875C147.759 50.8352 148.167 50.9091 148.614 50.9091C149.114 50.9091 149.557 50.822 149.943 50.6477C150.33 50.4735 150.633 50.2311 150.852 49.9205C151.072 49.6098 151.182 49.25 151.182 48.8409C151.182 48.4129 151.076 48.036 150.864 47.7102C150.652 47.3807 150.341 47.1231 149.932 46.9375C149.523 46.7519 149.023 46.6591 148.432 46.6591H147.5V45.4091H148.432C148.894 45.4091 149.299 45.3258 149.648 45.1591C150 44.9924 150.275 44.7576 150.472 44.4545C150.672 44.1515 150.773 43.7955 150.773 43.3864C150.773 42.9924 150.686 42.6496 150.511 42.358C150.337 42.0663 150.091 41.839 149.773 41.6761C149.458 41.5133 149.087 41.4318 148.659 41.4318C148.258 41.4318 147.879 41.5057 147.523 41.6534C147.17 41.7973 146.883 42.0076 146.659 42.2841C146.436 42.5568 146.314 42.8864 146.295 43.2727H144.932C144.955 42.6629 145.138 42.1288 145.483 41.6705C145.828 41.2083 146.278 40.8485 146.835 40.5909C147.396 40.3333 148.011 40.2045 148.682 40.2045C149.402 40.2045 150.019 40.3504 150.534 40.642C151.049 40.9299 151.445 41.3106 151.722 41.7841C151.998 42.2576 152.136 42.7689 152.136 43.3182C152.136 43.9735 151.964 44.5322 151.619 44.9943C151.278 45.4564 150.814 45.7765 150.227 45.9545V46.0455C150.962 46.1667 151.536 46.4792 151.949 46.983C152.362 47.483 152.568 48.1023 152.568 48.8409C152.568 49.4735 152.396 50.0417 152.051 50.5455C151.71 51.0455 151.244 51.4394 150.653 51.7273C150.063 52.0152 149.39 52.1591 148.636 52.1591ZM158.824 52.1591C158.074 52.1591 157.405 52.0303 156.818 51.7727C156.235 51.5152 155.771 51.1572 155.426 50.6989C155.085 50.2367 154.9 49.7008 154.869 49.0909H156.301C156.331 49.4659 156.46 49.7898 156.688 50.0625C156.915 50.3314 157.212 50.5398 157.58 50.6875C157.947 50.8352 158.354 50.9091 158.801 50.9091C159.301 50.9091 159.744 50.822 160.131 50.6477C160.517 50.4735 160.82 50.2311 161.04 49.9205C161.259 49.6098 161.369 49.25 161.369 48.8409C161.369 48.4129 161.263 48.036 161.051 47.7102C160.839 47.3807 160.528 47.1231 160.119 46.9375C159.71 46.7519 159.21 46.6591 158.619 46.6591H157.688V45.4091H158.619C159.081 45.4091 159.487 45.3258 159.835 45.1591C160.188 44.9924 160.462 44.7576 160.659 44.4545C160.86 44.1515 160.96 43.7955 160.96 43.3864C160.96 42.9924 160.873 42.6496 160.699 42.358C160.525 42.0663 160.278 41.839 159.96 41.6761C159.646 41.5133 159.275 41.4318 158.847 41.4318C158.445 41.4318 158.066 41.5057 157.71 41.6534C157.358 41.7973 157.07 42.0076 156.847 42.2841C156.623 42.5568 156.502 42.8864 156.483 43.2727H155.119C155.142 42.6629 155.326 42.1288 155.67 41.6705C156.015 41.2083 156.466 40.8485 157.023 40.5909C157.583 40.3333 158.199 40.2045 158.869 40.2045C159.589 40.2045 160.206 40.3504 160.722 40.642C161.237 40.9299 161.633 41.3106 161.909 41.7841C162.186 42.2576 162.324 42.7689 162.324 43.3182C162.324 43.9735 162.152 44.5322 161.807 44.9943C161.466 45.4564 161.002 45.7765 160.415 45.9545V46.0455C161.15 46.1667 161.723 46.4792 162.136 46.983C162.549 47.483 162.756 48.1023 162.756 48.8409C162.756 49.4735 162.583 50.0417 162.239 50.5455C161.898 51.0455 161.432 51.4394 160.841 51.7273C160.25 52.0152 159.578 52.1591 158.824 52.1591ZM169.011 52.1591C168.261 52.1591 167.593 52.0303 167.006 51.7727C166.422 51.5152 165.958 51.1572 165.614 50.6989C165.273 50.2367 165.087 49.7008 165.057 49.0909H166.489C166.519 49.4659 166.648 49.7898 166.875 50.0625C167.102 50.3314 167.4 50.5398 167.767 50.6875C168.134 50.8352 168.542 50.9091 168.989 50.9091C169.489 50.9091 169.932 50.822 170.318 50.6477C170.705 50.4735 171.008 50.2311 171.227 49.9205C171.447 49.6098 171.557 49.25 171.557 48.8409C171.557 48.4129 171.451 48.036 171.239 47.7102C171.027 47.3807 170.716 47.1231 170.307 46.9375C169.898 46.7519 169.398 46.6591 168.807 46.6591H167.875V45.4091H168.807C169.269 45.4091 169.674 45.3258 170.023 45.1591C170.375 44.9924 170.65 44.7576 170.847 44.4545C171.047 44.1515 171.148 43.7955 171.148 43.3864C171.148 42.9924 171.061 42.6496 170.886 42.358C170.712 42.0663 170.466 41.839 170.148 41.6761C169.833 41.5133 169.462 41.4318 169.034 41.4318C168.633 41.4318 168.254 41.5057 167.898 41.6534C167.545 41.7973 167.258 42.0076 167.034 42.2841C166.811 42.5568 166.689 42.8864 166.67 43.2727H165.307C165.33 42.6629 165.513 42.1288 165.858 41.6705C166.203 41.2083 166.653 40.8485 167.21 40.5909C167.771 40.3333 168.386 40.2045 169.057 40.2045C169.777 40.2045 170.394 40.3504 170.909 40.642C171.424 40.9299 171.82 41.3106 172.097 41.7841C172.373 42.2576 172.511 42.7689 172.511 43.3182C172.511 43.9735 172.339 44.5322 171.994 44.9943C171.653 45.4564 171.189 45.7765 170.602 45.9545V46.0455C171.337 46.1667 171.911 46.4792 172.324 46.983C172.737 47.483 172.943 48.1023 172.943 48.8409C172.943 49.4735 172.771 50.0417 172.426 50.5455C172.085 51.0455 171.619 51.4394 171.028 51.7273C170.438 52.0152 169.765 52.1591 169.011 52.1591ZM179.199 52.1591C178.449 52.1591 177.78 52.0303 177.193 51.7727C176.61 51.5152 176.146 51.1572 175.801 50.6989C175.46 50.2367 175.275 49.7008 175.244 49.0909H176.676C176.706 49.4659 176.835 49.7898 177.062 50.0625C177.29 50.3314 177.587 50.5398 177.955 50.6875C178.322 50.8352 178.729 50.9091 179.176 50.9091C179.676 50.9091 180.119 50.822 180.506 50.6477C180.892 50.4735 181.195 50.2311 181.415 49.9205C181.634 49.6098 181.744 49.25 181.744 48.8409C181.744 48.4129 181.638 48.036 181.426 47.7102C181.214 47.3807 180.903 47.1231 180.494 46.9375C180.085 46.7519 179.585 46.6591 178.994 46.6591H178.062V45.4091H178.994C179.456 45.4091 179.862 45.3258 180.21 45.1591C180.563 44.9924 180.837 44.7576 181.034 44.4545C181.235 44.1515 181.335 43.7955 181.335 43.3864C181.335 42.9924 181.248 42.6496 181.074 42.358C180.9 42.0663 180.653 41.839 180.335 41.6761C180.021 41.5133 179.65 41.4318 179.222 41.4318C178.82 41.4318 178.441 41.5057 178.085 41.6534C177.733 41.7973 177.445 42.0076 177.222 42.2841C176.998 42.5568 176.877 42.8864 176.858 43.2727H175.494C175.517 42.6629 175.701 42.1288 176.045 41.6705C176.39 41.2083 176.841 40.8485 177.398 40.5909C177.958 40.3333 178.574 40.2045 179.244 40.2045C179.964 40.2045 180.581 40.3504 181.097 40.642C181.612 40.9299 182.008 41.3106 182.284 41.7841C182.561 42.2576 182.699 42.7689 182.699 43.3182C182.699 43.9735 182.527 44.5322 182.182 44.9943C181.841 45.4564 181.377 45.7765 180.79 45.9545V46.0455C181.525 46.1667 182.098 46.4792 182.511 46.983C182.924 47.483 183.131 48.1023 183.131 48.8409C183.131 49.4735 182.958 50.0417 182.614 50.5455C182.273 51.0455 181.807 51.4394 181.216 51.7273C180.625 52.0152 179.953 52.1591 179.199 52.1591ZM189.682 49.6136V48.4545L194.795 40.3636H195.636V42.1591H195.068L191.205 48.2727V48.3636H198.091V49.6136H189.682ZM195.159 52V49.2614V48.7216V40.3636H196.5V52H195.159ZM199.947 49.6136V48.4545L205.061 40.3636H205.902V42.1591H205.334L201.47 48.2727V48.3636H208.357V49.6136H199.947ZM205.425 52V49.2614V48.7216V40.3636H206.766V52H205.425ZM210.213 49.6136V48.4545L215.327 40.3636H216.168V42.1591H215.599L211.736 48.2727V48.3636H218.622V49.6136H210.213ZM215.69 52V49.2614V48.7216V40.3636H217.031V52H215.69ZM220.479 49.6136V48.4545L225.592 40.3636H226.433V42.1591H225.865L222.001 48.2727V48.3636H228.888V49.6136H220.479ZM225.956 52V49.2614V48.7216V40.3636H227.297V52H225.956Z" fill="#555555"/>
<path d="M43.8409 136.159C43.1742 136.159 42.5739 136.027 42.0398 135.761C41.5057 135.496 41.0777 135.133 40.7557 134.67C40.4337 134.208 40.2576 133.682 40.2273 133.091H41.5909C41.6439 133.617 41.8826 134.053 42.3068 134.398C42.7348 134.739 43.2462 134.909 43.8409 134.909C44.3182 134.909 44.7424 134.797 45.1136 134.574C45.4886 134.35 45.7822 134.044 45.9943 133.653C46.2102 133.259 46.3182 132.814 46.3182 132.318C46.3182 131.811 46.2064 131.358 45.983 130.96C45.7633 130.559 45.4602 130.242 45.0739 130.011C44.6875 129.78 44.2462 129.663 43.75 129.659C43.3939 129.655 43.0284 129.71 42.6534 129.824C42.2784 129.934 41.9697 130.076 41.7273 130.25L40.4091 130.091L41.1136 124.364H47.1591V125.614H42.2955L41.8864 129.045H41.9545C42.1932 128.856 42.4924 128.699 42.8523 128.574C43.2121 128.449 43.5871 128.386 43.9773 128.386C44.6894 128.386 45.3239 128.557 45.8807 128.898C46.4413 129.235 46.8807 129.697 47.1989 130.284C47.5208 130.871 47.6818 131.542 47.6818 132.295C47.6818 133.038 47.5152 133.701 47.1818 134.284C46.8523 134.864 46.3977 135.322 45.8182 135.659C45.2386 135.992 44.5795 136.159 43.8409 136.159ZM53.5753 136.159C52.9086 136.159 52.3082 136.027 51.7741 135.761C51.2401 135.496 50.812 135.133 50.4901 134.67C50.1681 134.208 49.992 133.682 49.9616 133.091H51.3253C51.3783 133.617 51.617 134.053 52.0412 134.398C52.4692 134.739 52.9806 134.909 53.5753 134.909C54.0526 134.909 54.4768 134.797 54.848 134.574C55.223 134.35 55.5166 134.044 55.7287 133.653C55.9446 133.259 56.0526 132.814 56.0526 132.318C56.0526 131.811 55.9408 131.358 55.7173 130.96C55.4976 130.559 55.1946 130.242 54.8082 130.011C54.4219 129.78 53.9806 129.663 53.4844 129.659C53.1283 129.655 52.7628 129.71 52.3878 129.824C52.0128 129.934 51.7041 130.076 51.4616 130.25L50.1435 130.091L50.848 124.364H56.8935V125.614H52.0298L51.6207 129.045H51.6889C51.9276 128.856 52.2268 128.699 52.5866 128.574C52.9465 128.449 53.3215 128.386 53.7116 128.386C54.4238 128.386 55.0582 128.557 55.6151 128.898C56.1757 129.235 56.6151 129.697 56.9332 130.284C57.2552 130.871 57.4162 131.542 57.4162 132.295C57.4162 133.038 57.2495 133.701 56.9162 134.284C56.5866 134.864 56.1321 135.322 55.5526 135.659C54.973 135.992 54.3139 136.159 53.5753 136.159ZM63.8097 123.818L60.0597 137.75H58.8324L62.5824 123.818H63.8097ZM69.2401 136.159C68.7628 136.152 68.2855 136.061 67.8082 135.886C67.331 135.712 66.8954 135.419 66.5014 135.006C66.1075 134.589 65.7912 134.027 65.5526 133.318C65.3139 132.606 65.1946 131.712 65.1946 130.636C65.1946 129.606 65.2912 128.693 65.4844 127.898C65.6776 127.098 65.9579 126.426 66.3253 125.881C66.6927 125.331 67.1359 124.915 67.6548 124.631C68.1776 124.347 68.7666 124.205 69.4219 124.205C70.0734 124.205 70.6529 124.335 71.1605 124.597C71.6719 124.854 72.0885 125.214 72.4105 125.676C72.7325 126.138 72.9408 126.67 73.0355 127.273H71.6491C71.5204 126.75 71.2704 126.316 70.8991 125.972C70.5279 125.627 70.0355 125.455 69.4219 125.455C68.5204 125.455 67.8101 125.847 67.2912 126.631C66.776 127.415 66.5166 128.515 66.5128 129.932H66.6037C66.8158 129.61 67.0677 129.335 67.3594 129.108C67.6548 128.877 67.9806 128.699 68.3366 128.574C68.6927 128.449 69.0696 128.386 69.4673 128.386C70.134 128.386 70.7438 128.553 71.2969 128.886C71.8499 129.216 72.2931 129.672 72.6264 130.256C72.9598 130.835 73.1264 131.5 73.1264 132.25C73.1264 132.97 72.9654 133.629 72.6435 134.227C72.3215 134.822 71.8688 135.295 71.2855 135.648C70.706 135.996 70.0241 136.167 69.2401 136.159ZM69.2401 134.909C69.7173 134.909 70.1454 134.79 70.5241 134.551C70.9067 134.312 71.2079 133.992 71.4276 133.591C71.651 133.189 71.7628 132.742 71.7628 132.25C71.7628 131.769 71.6548 131.331 71.4389 130.938C71.2268 130.54 70.9332 130.223 70.5582 129.989C70.187 129.754 69.7628 129.636 69.2855 129.636C68.9257 129.636 68.5904 129.708 68.2798 129.852C67.9692 129.992 67.6965 130.186 67.4616 130.432C67.2306 130.678 67.0488 130.96 66.9162 131.278C66.7836 131.593 66.7173 131.924 66.7173 132.273C66.7173 132.735 66.8253 133.167 67.0412 133.568C67.2609 133.97 67.5601 134.294 67.9389 134.54C68.3215 134.786 68.7552 134.909 69.2401 134.909ZM79.2244 136.159C78.7472 136.152 78.2699 136.061 77.7926 135.886C77.3153 135.712 76.8797 135.419 76.4858 135.006C76.0919 134.589 75.7756 134.027 75.5369 133.318C75.2983 132.606 75.179 131.712 75.179 130.636C75.179 129.606 75.2756 128.693 75.4688 127.898C75.6619 127.098 75.9422 126.426 76.3097 125.881C76.6771 125.331 77.1203 124.915 77.6392 124.631C78.1619 124.347 78.7509 124.205 79.4062 124.205C80.0578 124.205 80.6373 124.335 81.1449 124.597C81.6563 124.854 82.0729 125.214 82.3949 125.676C82.7169 126.138 82.9252 126.67 83.0199 127.273H81.6335C81.5047 126.75 81.2547 126.316 80.8835 125.972C80.5123 125.627 80.0199 125.455 79.4062 125.455C78.5047 125.455 77.7945 125.847 77.2756 126.631C76.7604 127.415 76.5009 128.515 76.4972 129.932H76.5881C76.8002 129.61 77.0521 129.335 77.3438 129.108C77.6392 128.877 77.965 128.699 78.321 128.574C78.6771 128.449 79.054 128.386 79.4517 128.386C80.1184 128.386 80.7282 128.553 81.2812 128.886C81.8343 129.216 82.2775 129.672 82.6108 130.256C82.9441 130.835 83.1108 131.5 83.1108 132.25C83.1108 132.97 82.9498 133.629 82.6278 134.227C82.3059 134.822 81.8532 135.295 81.2699 135.648C80.6903 135.996 80.0085 136.167 79.2244 136.159ZM79.2244 134.909C79.7017 134.909 80.1297 134.79 80.5085 134.551C80.8911 134.312 81.1922 133.992 81.4119 133.591C81.6354 133.189 81.7472 132.742 81.7472 132.25C81.7472 131.769 81.6392 131.331 81.4233 130.938C81.2112 130.54 80.9176 130.223 80.5426 129.989C80.1714 129.754 79.7472 129.636 79.2699 129.636C78.91 129.636 78.5748 129.708 78.2642 129.852C77.9536 129.992 77.6809 130.186 77.446 130.432C77.215 130.678 77.0331 130.96 76.9006 131.278C76.768 131.593 76.7017 131.924 76.7017 132.273C76.7017 132.735 76.8097 133.167 77.0256 133.568C77.2453 133.97 77.5445 134.294 77.9233 134.54C78.3059 134.786 78.7396 134.909 79.2244 134.909Z" fill="#555555"/>
<path d="M234.568 136L239.773 125.705V125.614H233.773V124.364H241.227V125.682L236.045 136H234.568ZM244.021 136L249.226 125.705V125.614H243.226V124.364H250.68V125.682L245.499 136H244.021ZM253.474 136L258.679 125.705V125.614H252.679V124.364H260.134V125.682L254.952 136H253.474Z" fill="#555555"/>
</svg>
